<svg width="100" height="101" viewBox="0 0 100 101" fill="none" xmlns="http://www.w3.org/2000/svg">
<path d="M28.2924 82.9742L29.9883 83.9865C36.2203 87.7006 43.3111 89.6629 50.4888 89.6629C72.6274 89.6629 90.6392 71.6512 90.6392 49.5095C90.6392 27.3713 72.6274 9.35965 50.4888 9.35965C28.3472 9.35965 10.3355 27.3713 10.3355 49.5095C10.3355 56.8233 12.3681 64.0195 16.2089 70.3283L17.2513 72.0386L13.2374 87.0097L28.2924 82.9742ZM68.9069 56.3955C66.8667 55.1789 64.2176 53.8186 61.8161 54.7987C59.974 55.5508 58.797 58.4353 57.6057 59.9075C56.9912 60.6649 56.2605 60.782 55.3209 60.4048C48.4063 57.6488 43.1101 53.0332 39.2943 46.673C38.6468 45.6866 38.764 44.9076 39.543 43.9907C40.6942 42.6346 42.1413 41.0918 42.452 39.2652C42.7661 37.4378 41.9074 35.2993 41.1507 33.6696C40.1862 31.5889 39.1037 28.622 37.0212 27.4451C35.1054 26.3634 32.5795 26.9662 30.8731 28.3586C27.9277 30.7563 26.505 34.5169 26.5496 38.2417C26.5602 39.3015 26.6918 40.357 26.9405 41.3809C27.5331 43.8372 28.6696 46.1322 29.9483 48.3141C30.9136 49.9593 31.9589 51.557 33.0882 53.0915C36.7869 58.1171 41.3881 62.4809 46.7134 65.7445C49.378 67.3754 52.2441 68.804 55.2114 69.7841C58.5412 70.8835 61.5092 72.0284 65.1054 71.3477C68.8664 70.6319 72.5795 68.3036 74.0746 64.6745C74.5172 63.6 74.7368 62.4046 74.4881 61.2711C73.9763 58.9255 70.8038 57.532 68.9069 56.3955ZM0 100.244L7.189 73.4279C3.11732 66.0884 0.975886 57.8612 0.975886 49.5095C0.975886 22.2108 23.1866 0 50.4888 0C77.788 0 99.9999 22.2108 99.9999 49.5095C99.9999 76.8117 77.788 99.0237 50.4888 99.0237C42.2918 99.0237 34.1991 96.9547 26.9548 93.0217L0 100.244Z" fill="#76C04E"/>
</svg>
