<svg width="100" height="100" viewBox="0 0 100 100" fill="none" xmlns="http://www.w3.org/2000/svg">
<path d="M90.2385 69.8261C90.2385 81.1034 81.0981 90.2461 69.8181 90.2461H30.1614C18.8916 90.2461 9.75118 81.1034 9.75118 69.8261V30.169C9.75118 18.8965 18.8916 9.75916 30.1614 9.75916H69.8181C81.0981 9.75916 90.2385 18.8965 90.2385 30.169V69.8261ZM99.9999 29.7128C99.9999 13.3066 86.6827 0 70.2747 0H29.715C13.2888 0 0 13.3066 0 29.7128V70.2823C0 86.7009 13.2888 100.005 29.715 100.005H70.2747C86.6827 100.005 99.9999 86.7009 99.9999 70.2823V29.7128ZM66.2911 49.2975C66.2911 40.6859 59.2781 33.6884 50.6717 33.6884C42.0676 33.6884 35.0653 40.6859 35.0653 49.2975C35.0653 57.9039 42.0676 64.9066 50.6717 64.9066C59.2781 64.9066 66.2911 57.9039 66.2911 49.2975ZM75.0392 49.2975C75.0392 62.733 64.1072 73.6653 50.6717 73.6653C37.2283 73.6653 26.304 62.733 26.304 49.2975C26.304 35.8643 37.2283 24.9298 50.6717 24.9298C64.1072 24.9298 75.0392 35.8643 75.0392 49.2975ZM82.2611 23.2823C82.2611 26.4949 79.6596 29.0888 76.4678 29.0888C73.2575 29.0888 70.656 26.4949 70.656 23.2823C70.656 20.0927 73.2575 17.4912 76.4678 17.4912C79.6596 17.4912 82.2611 20.0927 82.2611 23.2823Z" fill="#76C04E"/>
</svg>
