<svg width="120" height="104" viewBox="0 0 120 104" fill="none" xmlns="http://www.w3.org/2000/svg">
<path d="M13.7597 0H106.063C106.973 0 107.868 0.0918337 108.737 0.264936C109.618 0.44144 110.48 0.707135 111.312 1.05258C112.138 1.39652 112.933 1.82629 113.684 2.32973C114.437 2.83391 115.135 3.40723 115.767 4.03841L115.775 4.04602C116.409 4.6806 116.985 5.38131 117.49 6.13457C117.995 6.88708 118.425 7.68266 118.77 8.50962C119.116 9.34188 119.382 10.2051 119.558 11.0869C119.732 11.9558 119.823 12.8504 119.823 13.7598V16.4288L102.493 27.5021C88.8816 36.1981 75.2663 44.8971 61.6611 53.6017L61.6633 53.6051L59.9138 54.7257C39.9413 41.9629 19.9688 29.2006 0 16.4322V13.7598C0 12.8497 0.0917599 11.955 0.264862 11.0861C0.441366 10.2051 0.707061 9.34259 1.05251 8.51147C1.39645 7.68526 1.82585 6.89045 2.32928 6.13908C2.83347 5.38657 3.40678 4.68814 4.03834 4.0562L4.04587 4.0486C4.68045 3.41439 5.38042 2.83882 6.13406 2.33312C6.88618 1.82855 7.68221 1.39839 8.50955 1.05332C9.34142 0.707873 10.2042 0.441431 11.086 0.265305C11.9549 0.0914469 12.85 0 13.7597 0ZM106.063 9.06371H13.7597C13.4369 9.06371 13.1281 9.09433 12.8371 9.15178C12.5245 9.21338 12.2338 9.3007 11.97 9.40955C11.6749 9.53503 11.4013 9.6809 11.156 9.84494C10.9008 10.0154 10.662 10.2119 10.4458 10.4285L10.4383 10.436C10.2357 10.6382 10.0512 10.8586 9.88908 11.0937C9.74281 11.3049 9.60982 11.5385 9.49341 11.7891L59.908 44.0119L110.328 11.7868C110.212 11.5374 110.081 11.3057 109.937 11.0974C109.786 10.879 109.601 10.6598 109.387 10.4459L109.391 10.4421C109.166 10.2187 108.921 10.0176 108.664 9.84567C108.416 9.67975 108.145 9.53389 107.853 9.41295C107.589 9.30069 107.298 9.21338 106.986 9.15178C106.695 9.09433 106.385 9.06371 106.063 9.06371ZM119.823 26.5028V90.2393C119.823 91.1505 119.732 92.0463 119.558 92.9156C119.382 93.7981 119.116 94.6617 118.771 95.4928C118.426 96.3217 117.997 97.1184 117.493 97.8709C116.989 98.6245 116.415 99.323 115.785 99.9538V99.9614C115.164 100.582 114.463 101.155 113.695 101.669C112.942 102.172 112.145 102.602 111.317 102.947C110.485 103.292 109.621 103.559 108.739 103.735C107.869 103.909 106.973 104 106.063 104H13.7597C12.8496 104 11.9546 103.909 11.0857 103.735C10.2035 103.558 9.34027 103.291 8.51029 102.946C7.68182 102.602 6.88589 102.172 6.13376 101.669C5.36387 101.153 4.66242 100.579 4.04144 99.9584V99.9508C3.40912 99.3166 2.83387 98.6166 2.32854 97.8629C1.82511 97.1123 1.39605 96.3183 1.05325 95.4936C0.707422 94.6624 0.441431 93.7992 0.265305 92.9174C0.0918248 92.047 0 91.1505 0 90.2393V18.2514L59.908 56.541L119.823 18.2517V26.5028ZM110.759 90.2393V34.7547L59.9077 67.2507L9.06319 34.7547V90.2393C9.06319 90.5609 9.09388 90.8697 9.15133 91.1603C9.21143 91.4634 9.30017 91.7537 9.4128 92.0255C9.53374 92.3161 9.68003 92.5887 9.84671 92.8366C10.0175 93.091 10.2172 93.3324 10.4383 93.5535L10.4538 93.569C10.6579 93.7758 10.8955 93.9708 11.1601 94.1492L11.1574 94.153C11.4054 94.3189 11.678 94.4648 11.9697 94.5868C12.2411 94.6995 12.5317 94.7879 12.8359 94.848C13.1273 94.9055 13.4366 94.9361 13.7597 94.9361H106.063C106.384 94.9361 106.693 94.9055 106.984 94.848C107.287 94.7879 107.577 94.6995 107.849 94.5868C108.139 94.4659 108.412 94.3197 108.66 94.153C108.9 93.992 109.141 93.7897 109.377 93.5535H109.385C109.606 93.3324 109.805 93.0917 109.976 92.837C110.143 92.589 110.289 92.3165 110.41 92.0255C110.523 91.7537 110.612 91.4639 110.671 91.1608C110.729 90.8697 110.759 90.5613 110.759 90.2393Z" fill="#76C04E"/>
</svg>
